<?xml version="1.0" encoding="utf-8"?>
<!-- Generator: Adobe Illustrator 25.0.1, SVG Export Plug-In . SVG Version: 6.00 Build 0)  -->
<svg version="1.1" id="Livello_1" xmlns="http://www.w3.org/2000/svg" xmlns:xlink="http://www.w3.org/1999/xlink" x="0px" y="0px"
	 viewBox="0 0 48 48" style="enable-background:new 0 0 48 48;" xml:space="preserve">
<style type="text/css">
	.st0{fill:#1E1E1E;}
</style>
<path class="st0" d="M10,8c-1.1,0-2,0.9-2,2c0,0.5,0.2,1.1,0.6,1.4L21.2,24L8.6,36.6c-0.8,0.8-0.8,2-0.1,2.8c0.8,0.8,2,0.8,2.8,0.1
	c0,0,0,0,0.1-0.1L24,26.8l12.6,12.6c0.8,0.8,2,0.8,2.8,0.1s0.8-2,0.1-2.8c0,0,0,0-0.1-0.1L26.8,24l12.6-12.6c0.8-0.8,0.8-2,0-2.8
	C39.1,8.2,38.5,8,38,8c-0.5,0-1,0.2-1.4,0.6L24,21.2L11.4,8.6C11,8.2,10.5,8,10,8z"/>
</svg>
