<svg xmlns="http://www.w3.org/2000/svg" xmlns:xlink="http://www.w3.org/1999/xlink" viewBox="0 0 816.48 623.82"><defs><style>.cls-1{fill:#f18818;opacity:0.3;}.cls-2{fill:url(#Sfumatura_senza_nome_15);}</style><linearGradient id="Sfumatura_senza_nome_15" x1="72.38" y1="275.42" x2="754.45" y2="275.42" gradientTransform="translate(932.18 167.25) rotate(135)" gradientUnits="userSpaceOnUse"><stop offset="0" stop-color="#f18818"/><stop offset="1" stop-color="#e64f31"/></linearGradient></defs><g id="Livello_2" data-name="Livello 2"><g id="Livello_1-2" data-name="Livello 1"><path class="cls-1" d="M787.93,272.25c24.72-45.08,44.21-121.7,10.65-160.38-31.58-36.41-75.85.35-158.78-36.18C568.93,44.47,563.49,1,511.16,0c-25.7-.47-51.48,11.7-103,36.05-49.33,23.29-47.25,30-71,35.08C286.44,82,265.37,54.05,221,61c-25.92,4-43.67,17.41-89.67,64.71C48.6,210.69,7.26,253.2,2.2,276.58-27,411.31,240.21,650.44,457.5,621.4c29.82-4,103.67-13.86,149.5-70,43.11-52.77,18-93.31,64.39-162.65C715,323.51,753.08,335.79,787.93,272.25Z"/><path class="cls-2" d="M752.85,279.5c22.31-40.95,39.69-110.66,8.93-146.07-28.95-33.32-69.1,0-144.84-33.72-64.71-28.78-69.88-68.43-117.57-69.56-23.41-.56-46.84,10.41-93.71,32.34-44.83,21-42.91,27.1-64.54,31.63-46.1,9.65-65.43-15.92-105.86-9.85-23.6,3.54-39.71,15.66-81.39,58.53C79,219.87,41.49,258.41,37,279.69,11.05,402.3,255.63,621.45,453.46,596c27.15-3.49,94.4-12.13,135.88-63,39-47.87,16-84.93,57.88-147.88C686.68,325.86,721.4,337.23,752.85,279.5Z"/></g></g></svg>