<svg xmlns="http://www.w3.org/2000/svg" viewBox="0 0 496 416"><defs><style>.cls-1{fill:#f8c814;}</style></defs><g id="Livello_2" data-name="Livello 2"><g id="Layer_3" data-name="Layer 3"><path class="cls-1" d="M456,112a40.08,40.08,0,0,0-39.19,32H340l12-16a80,80,0,1,0-128,0l12,16H79.19A40,40,0,0,0,0,152V376a40,40,0,0,0,40,40H456a40,40,0,0,0,40-40V152A40,40,0,0,0,456,112ZM416,336H384V304h32Zm0-48H384a16,16,0,0,0-16,16v32a16,16,0,0,0,16,16h32v16H384a16,16,0,0,0-16,16v16H352V312a24,24,0,0,0-24-24H256a24,24,0,0,0-24,24v88H216V296a8,8,0,0,0-8-8H152a8,8,0,0,0-8,8v6.31A182,182,0,0,1,115.54,400H95.42A181.62,181.62,0,0,0,128,296a8,8,0,0,0-8-8H80V272h24a24,24,0,0,0,24-24V225.3a16,16,0,0,1,10.94-15.18l39.17-13.06A32,32,0,0,0,200,166.7V160h16v13.41a39.94,39.94,0,0,1-27.35,37.94l-33.71,11.23A16,16,0,0,0,144,237.77V248a24,24,0,0,0,24,24H328a24,24,0,0,0,24-24V160h16v88a24,24,0,0,0,24,24h24ZM336,400H248V312a8,8,0,0,1,8-8h72a8,8,0,0,1,8,8Zm-136,0H134.3A197.62,197.62,0,0,0,160,304h40ZM80,256V160H184v6.7a16,16,0,0,1-10.94,15.18l-39.17,13.06A32,32,0,0,0,112,225.3V248a8,8,0,0,1-8,8Zm336,0H392a8,8,0,0,1-8-8V160h32ZM288,16a64,64,0,0,1,51.2,102.41L288,186.66l-51.2-68.25A64,64,0,0,1,288,16Zm24,184c0,8.67-11,16-24,16s-24-7.33-24-16c0-3.84,2.31-7.55,6.15-10.46L281.6,204.8a8,8,0,0,0,12.8,0l11.45-15.26c3.84,2.91,6.15,6.62,6.15,10.46Zm-51.48-23.31C252.63,182.63,248,191,248,200c0,17.65,17.94,32,40,32s40-14.35,40-32c0-9-4.63-17.37-12.52-23.31L328,160h8v88a8,8,0,0,1-8,8H168a8,8,0,0,1-8-8V237.77l33.71-11.24A55.93,55.93,0,0,0,232,173.41V160h16ZM16,152a24,24,0,0,1,48,0V344a39.92,39.92,0,0,0-48,0Zm0,224a24,24,0,0,1,48,0,8,8,0,0,0,16,0V304h31.82A165.92,165.92,0,0,1,81,392.92L75.89,400H40a24,24,0,0,1-24-24Zm440,24H384V384h40a8,8,0,0,0,8-8,24,24,0,1,1,24,24Zm24-56a39.92,39.92,0,0,0-48,0V152a24,24,0,0,1,48,0Z"/><path class="cls-1" d="M288,112a40,40,0,1,0-40-40A40,40,0,0,0,288,112Zm0-64a24,24,0,1,1-24,24A24,24,0,0,1,288,48Z"/></g></g></svg>