<svg xmlns="http://www.w3.org/2000/svg" xmlns:xlink="http://www.w3.org/1999/xlink" viewBox="0 0 816.48 623.82"><defs><style>.cls-1{fill:#f8c811;opacity:0.3;}.cls-2{fill:url(#Sfumatura_senza_nome_9);}</style><linearGradient id="Sfumatura_senza_nome_9" x1="-639.8" y1="547.33" x2="70.49" y2="547.33" gradientTransform="translate(630.56 854.4) rotate(135)" gradientUnits="userSpaceOnUse"><stop offset="0.24" stop-color="#f8c811"/><stop offset="1" stop-color="#e5920c"/></linearGradient></defs><g id="Livello_2" data-name="Livello 2"><g id="Livello_1-2" data-name="Livello 1"><path class="cls-1" d="M787.93,272.25c24.72-45.08,44.21-121.7,10.65-160.38-31.58-36.41-75.85.35-158.78-36.18C568.93,44.47,563.49,1,511.16,0c-25.7-.47-51.48,11.7-103,36.05-49.33,23.29-47.25,30-71,35.08C286.44,82,265.37,54.05,221,61c-25.92,4-43.67,17.41-89.67,64.71C48.6,210.69,7.26,253.2,2.2,276.58-27,411.31,240.21,650.44,457.5,621.4c29.82-4,103.67-13.86,149.5-70,43.11-52.77,18-93.31,64.39-162.65C715,323.51,753.08,335.79,787.93,272.25Z"/><path class="cls-2" d="M758.63,274.72c23.62-42.26,42.81-113.78,12.15-149.28C741.91,92,700.25,126.82,623.64,94c-65.46-28-69.92-68.39-118.56-68.57-23.89-.08-48,11.6-96.32,35C362.56,82.74,364.4,88.94,342.23,94c-47.25,10.8-66.46-14.89-107.85-7.86-24.17,4.11-40.85,16.8-84.29,61.43C72,227.8,33,267.9,28,289.72-1,415.4,244.05,634,446.51,604c27.78-4.13,96.59-14.34,140-67.14,40.82-49.67,18.06-87,62.14-152.14C690.14,323.4,725.34,334.29,758.63,274.72Z"/></g></g></svg>