<?xml version="1.0" encoding="utf-8"?>
<!-- Generator: Adobe Illustrator 25.0.1, SVG Export Plug-In . SVG Version: 6.00 Build 0)  -->
<svg version="1.1" id="Capa_1" xmlns="http://www.w3.org/2000/svg" xmlns:xlink="http://www.w3.org/1999/xlink" x="0px" y="0px"
	 viewBox="0 0 512 512" style="enable-background:new 0 0 512 512;" xml:space="preserve">
<style type="text/css">
	.st0{fill:#f8c814;}
</style>
<path class="st0" d="M64,256c0-94.9,69.4-173.1,160-188.5V96l64-48L224,0v34.6C115.6,50.2,32,143.4,32,256
	c0,80.9,43.3,151.8,107.8,191.1l27.8-20.9C106.1,394.2,64,330,64,256z"/>
<path class="st0" d="M480,256c0-80.9-43.3-151.8-107.8-191.1l-27.8,20.9C405.9,117.8,448,182,448,256c0,94.9-69.4,173.4-160,188.7
	V416l-64,48l64,48v-34.6C396.4,461.8,480,368.6,480,256z"/>
</svg>
